<?xml version="1.0" encoding="UTF-8" standalone="no"?>
<!DOCTYPE svg PUBLIC "-//W3C//DTD SVG 20010904//EN"
              "http://www.w3.org/TR/2001/REC-SVG-20010904/DTD/svg10.dtd">

<svg xmlns="http://www.w3.org/2000/svg"
     width="5.55556in" height="5.55556in"
     viewBox="0 0 400 400">
  <path id="Selection"
        fill="black" stroke="black" stroke-width="1"
        d="M 150.00,12.00
           C 200.96,22.41 235.52,64.88 239.09,116.00
             239.09,116.00 239.82,123.00 239.82,123.00
             239.82,123.00 239.09,130.00 239.09,130.00
             238.10,144.09 236.12,153.81 230.80,167.00
             225.32,180.59 222.17,179.61 227.09,185.04
             227.09,185.04 266.00,221.09 266.00,221.09
             266.00,221.09 352.00,300.91 352.00,300.91
             352.00,300.91 381.00,327.72 381.00,327.72
             386.09,332.21 393.00,337.76 393.80,345.00
             395.22,357.86 378.46,373.36 363.00,359.87
             363.00,359.87 318.00,318.09 318.00,318.09
             318.00,318.09 239.00,245.04 239.00,245.04
             239.00,245.04 210.00,218.17 210.00,218.17
             207.66,216.06 202.04,209.84 198.83,210.99
             198.83,210.99 187.00,218.95 187.00,218.95
             179.20,223.89 171.76,227.54 163.00,230.48
             124.20,243.53 79.24,235.04 49.00,206.91
             -0.07,161.26 0.11,81.54 51.00,37.29
             64.70,25.37 82.27,16.39 100.00,12.42
             100.00,12.42 123.00,9.43 123.00,9.43
             128.96,8.83 143.79,10.74 150.00,12.00 Z
           M 77.00,40.45
           C 50.94,55.99 31.15,87.25 31.00,118.00
             30.94,130.99 31.16,140.39 35.35,153.00
             47.32,188.92 82.18,218.54 121.00,219.00
             139.52,219.21 151.97,217.99 169.00,209.74
             180.67,204.09 190.60,196.81 199.13,187.00
             232.32,148.84 231.52,89.99 194.83,54.28
             184.29,44.02 171.87,36.53 158.00,31.69
             145.20,27.23 129.46,26.03 116.00,27.29
             101.10,29.56 90.13,32.63 77.00,40.45 Z" />
</svg>
